<svg width="17" height="15" viewBox="0 0 17 15" fill="none" xmlns="http://www.w3.org/2000/svg">
<path d="M9.626 14.286L8.57 13.186L13.718 8.082L0.43 8.082L0.43 6.498L13.718 6.498L8.57 1.394L9.626 0.293999L16.644 7.29L9.626 14.286Z" fill="#FB0303"/>
<path d="M9.626 14.286L8.57 13.186L13.718 8.082L0.43 8.082L0.43 6.498L13.718 6.498L8.57 1.394L9.626 0.293999L16.644 7.29L9.626 14.286Z" fill="#FB0303"/>
<path d="M9.626 14.286L8.57 13.186L13.718 8.082L0.43 8.082L0.43 6.498L13.718 6.498L8.57 1.394L9.626 0.293999L16.644 7.29L9.626 14.286Z" fill="#FB0303"/>
<path d="M9.626 14.286L8.57 13.186L13.718 8.082L0.43 8.082L0.43 6.498L13.718 6.498L8.57 1.394L9.626 0.293999L16.644 7.29L9.626 14.286Z" fill="#FB0303"/>
<path d="M9.626 14.286L8.57 13.186L13.718 8.082L0.43 8.082L0.43 6.498L13.718 6.498L8.57 1.394L9.626 0.293999L16.644 7.29L9.626 14.286Z" fill="#FB0303"/>
</svg>
